<?xml version="1.0" encoding="UTF-8" standalone="no"?>
<!-- Created with Inkscape (http://www.inkscape.org/) -->

<svg
   xmlns:osb="http://www.openswatchbook.org/uri/2009/osb"
   xmlns:dc="http://purl.org/dc/elements/1.1/"
   xmlns:cc="http://creativecommons.org/ns#"
   xmlns:rdf="http://www.w3.org/1999/02/22-rdf-syntax-ns#"
   xmlns:svg="http://www.w3.org/2000/svg"
   xmlns="http://www.w3.org/2000/svg"
   xmlns:xlink="http://www.w3.org/1999/xlink"
   xmlns:sodipodi="http://sodipodi.sourceforge.net/DTD/sodipodi-0.dtd"
   xmlns:inkscape="http://www.inkscape.org/namespaces/inkscape"
   width="760"
   height="760"
   viewBox="0 0 760 760"
   id="svg2"
   version="1.1"
   inkscape:version="0.92.2 (5c3e80d, 2017-08-06)"
   sodipodi:docname="AMQ-Interconnect-Scenario.svg">
  <defs
     id="defs4">
    <marker
       inkscape:isstock="true"
       style="overflow:visible"
       id="marker5172"
       refX="0"
       refY="0"
       orient="auto"
       inkscape:stockid="TriangleOutM">
      <path
         transform="scale(0.4)"
         style="fill:#595959;fill-opacity:1;fill-rule:evenodd;stroke:#595959;stroke-width:1.00000003000000004pt;stroke-opacity:1"
         d="M 5.77,0 -2.88,5 V -5 Z"
         id="path5170"
         inkscape:connector-curvature="0" />
    </marker>
    <marker
       inkscape:isstock="true"
       style="overflow:visible"
       id="marker14538"
       refX="0"
       refY="0"
       orient="auto"
       inkscape:stockid="TriangleOutM">
      <path
         transform="scale(0.4)"
         style="fill:#595959;fill-opacity:1;fill-rule:evenodd;stroke:#595959;stroke-width:1.00000003000000004pt;stroke-opacity:1"
         d="M 5.77,0 -2.88,5 V -5 Z"
         id="path14536"
         inkscape:connector-curvature="0" />
    </marker>
    <linearGradient
       id="linearGradient17543"
       osb:paint="solid">
      <stop
         style="stop-color:#33c7e9;stop-opacity:1;"
         offset="0"
         id="stop17545" />
    </linearGradient>
    <symbol
       id="icon-Icon_RH_Hardware_Server-A-Single_RGB_Flat"
       viewBox="0 0 58 32">
      <title
         id="title11318">Icon_RH_Hardware_Server-A-Single_RGB_Flat</title>
      <path
         class="path1"
         d="M15.763 7.303c-0.003-0-0.006-0-0.009-0-0.101 0-0.197 0.021-0.284 0.059l-7.723 3.284c-0.258 0.115-0.435 0.369-0.435 0.664 0 0.070 0.010 0.137 0.028 0.2-0.018 0.058-0.038 0.118-0.038 0.183v12.274c0 0.403 0.327 0.73 0.73 0.73h42.010c0.403 0 0.73-0.327 0.73-0.73v-12.274c0.003-0.066-0.020-0.128-0.037-0.188 0.018-0.059 0.028-0.127 0.028-0.198 0-0.28-0.16-0.523-0.395-0.642l-6.72-3.288c-0.093-0.047-0.203-0.074-0.319-0.074h-27.567zM15.908 8.761h27.255l4.498 2.205h-36.926l5.173-2.205zM8.763 12.606h40.552v10.631h-40.552v-10.631zM40.359 14.54c-0.203 0-0.365 0.163-0.365 0.365v5.842c0 0.202 0.162 0.365 0.365 0.365h2.191c0.202 0 0.365-0.163 0.365-0.365v-5.842c0-0.202-0.163-0.365-0.365-0.365h-2.191zM44.74 14.54c-0.202 0-0.365 0.163-0.365 0.365v5.842c0 0.202 0.163 0.365 0.365 0.365h2.191c0.199 0 0.365-0.163 0.365-0.365v-5.842c0-0.202-0.166-0.365-0.365-0.365h-2.191zM40.724 15.27h1.461v5.112h-1.461v-5.112zM45.105 15.27h1.461v5.112h-1.461v-5.112zM12.457 16.879c-0.555 0-1.004 0.45-1.004 1.004s0.45 1.004 1.004 1.004c0.555 0 1.004-0.45 1.004-1.004s-0.45-1.004-1.004-1.004zM16.020 16.879c-0.555 0-1.004 0.45-1.004 1.004s0.45 1.004 1.004 1.004c0.555 0 1.004-0.45 1.004-1.004s-0.45-1.004-1.004-1.004z"
         id="path11320" />
    </symbol>
    <symbol
       id="icon-Icon_RH_People_Adult-Plain_RGB_Flat"
       viewBox="0 0 23 32">
      <title
         id="title10643">Icon_RH_People_Adult-Plain_RGB_Flat</title>
      <path
         class="path1"
         d="M11.377 2.913c-2.256 0-4.090 1.835-4.090 4.091 0 2.254 1.834 4.089 4.090 4.089 2.254 0 4.091-1.835 4.091-4.089 0-2.256-1.836-4.090-4.091-4.090zM11.377 3.502c1.931 0 3.501 1.572 3.501 3.502 0 1.929-1.569 3.499-3.501 3.499-1.93 0-3.501-1.57-3.501-3.499 0-1.933 1.571-3.502 3.501-3.502zM9.419 11.884c-5.69 0-6.033 4.176-6.216 6.421l-0.289 3.621v0.024c0 2.054 1.193 3.099 2.521 4.074l0.337 0.248-0.088 1.435 0.218 0.189c0.524 0.444 1.932 1.19 5.475 1.19 3.441 0 4.87-0.713 5.416-1.139l0.243-0.19-0.084-1.461 0.341-0.251c1.394-1.023 2.548-2.037 2.548-4.095l-0.288-3.657c-0.221-2.24-0.631-6.41-6.214-6.41h-3.92zM9.419 12.473h3.919c4.856 0 5.379 3.337 5.629 5.878l0.283 3.599h0.003c0 1.743-0.939 2.615-2.308 3.62l-0.561-7.796c-0-0.143-0.117-0.259-0.26-0.259 0 0 0 0 0 0-0.142 0-0.256 0.115-0.256 0.257 0 0.001 0 0.001 0 0.002l0.563 9.709c-0.426 0.332-1.7 1.014-5.053 1.014-3.476 0-4.72-0.733-5.094-1.051 0.008-0.021 0.013-0.046 0.013-0.071l0.565-9.601c0-0.143-0.116-0.258-0.258-0.258s-0.258 0.116-0.258 0.258l-0.561 7.775c-1.359-0.997-2.28-1.868-2.28-3.599l0.287-3.599c0.221-2.701 0.771-5.878 5.629-5.878z"
         id="path10645" />
    </symbol>
    <marker
       inkscape:stockid="TriangleOutM"
       orient="auto"
       refY="0"
       refX="0"
       id="TriangleOutM-2-9"
       style="overflow:visible"
       inkscape:isstock="true"
       inkscape:collect="always">
      <path
         inkscape:connector-curvature="0"
         id="path10019-7-2"
         d="M 5.77,0 -2.88,5 V -5 Z"
         style="fill:#595959;fill-opacity:1;fill-rule:evenodd;stroke:#595959;stroke-width:1.00000003000000004pt;stroke-opacity:1"
         transform="scale(0.4)" />
    </marker>
    <marker
       inkscape:stockid="TriangleOutM"
       orient="auto"
       refY="0"
       refX="0"
       id="TriangleOutM-2-9-9"
       style="overflow:visible"
       inkscape:isstock="true">
      <path
         inkscape:connector-curvature="0"
         id="path10019-7-2-2"
         d="M 5.77,0 -2.88,5 V -5 Z"
         style="fill:#595959;fill-opacity:1;fill-rule:evenodd;stroke:#595959;stroke-width:1.00000003000000004pt;stroke-opacity:1"
         transform="scale(0.4)" />
    </marker>
    <marker
       inkscape:stockid="TriangleOutM"
       orient="auto"
       refY="0"
       refX="0"
       id="TriangleOutM-2-9-9-9"
       style="overflow:visible"
       inkscape:isstock="true">
      <path
         inkscape:connector-curvature="0"
         id="path10019-7-2-2-4"
         d="M 5.77,0 -2.88,5 V -5 Z"
         style="fill:#595959;fill-opacity:1;fill-rule:evenodd;stroke:#595959;stroke-width:1.00000003000000004pt;stroke-opacity:1"
         transform="scale(0.4)" />
    </marker>
    <marker
       inkscape:isstock="true"
       style="overflow:visible"
       id="marker15435-71-7"
       refX="0"
       refY="0"
       orient="auto"
       inkscape:stockid="TriangleInM">
      <path
         inkscape:connector-curvature="0"
         transform="scale(-0.4)"
         style="fill:#595959;fill-opacity:1;fill-rule:evenodd;stroke:#595959;stroke-width:1.00000003000000004pt;stroke-opacity:1"
         d="M 5.77,0 -2.88,5 V -5 Z"
         id="path15437-5-8" />
    </marker>
  </defs>
  <sodipodi:namedview
     id="base"
     pagecolor="#ffffff"
     bordercolor="#808b97"
     borderopacity="0.6706"
     inkscape:pageopacity="0"
     inkscape:pageshadow="2"
     inkscape:zoom="2.447983"
     inkscape:cx="335.5"
     inkscape:cy="574.32481"
     inkscape:document-units="px"
     inkscape:current-layer="layer1"
     showgrid="true"
     units="px"
     inkscape:showpageshadow="false"
     inkscape:window-width="1680"
     inkscape:window-height="949"
     inkscape:window-x="0"
     inkscape:window-y="23"
     inkscape:window-maximized="0"
     inkscape:snap-global="true"
     inkscape:snap-bbox="true"
     inkscape:bbox-paths="true"
     inkscape:bbox-nodes="true"
     inkscape:snap-bbox-midpoints="false"
     inkscape:snap-bbox-edge-midpoints="false"
     objecttolerance="20"
     guidetolerance="10000"
     inkscape:snap-path-clip="false"
     inkscape:snap-text-baseline="true"
     inkscape:snap-smooth-nodes="true"
     inkscape:snap-intersection-paths="true"
     inkscape:object-paths="true"
     inkscape:snap-page="true"
     showguides="false">
    <inkscape:grid
       type="xygrid"
       id="grid6365"
       spacingx="20"
       spacingy="20"
       empspacing="20"
       color="#7f889a"
       opacity="0.12549"
       empcolor="#6f7d82"
       empopacity="0.2902"
       dotted="false"
       originx="0"
       originy="0" />
    <sodipodi:guide
       position="0,0"
       orientation="0,760"
       id="guide5161"
       inkscape:locked="false" />
    <sodipodi:guide
       position="760,0"
       orientation="-760,0"
       id="guide5163"
       inkscape:locked="false" />
    <sodipodi:guide
       position="760,760"
       orientation="0,-760"
       id="guide5165"
       inkscape:locked="false" />
    <sodipodi:guide
       position="0,760"
       orientation="760,0"
       id="guide5167"
       inkscape:locked="false" />
  </sodipodi:namedview>
  <metadata
     id="metadata7">
    <rdf:RDF>
      <cc:Work
         rdf:about="">
        <dc:format>image/svg+xml</dc:format>
        <dc:type
           rdf:resource="http://purl.org/dc/dcmitype/StillImage" />
        <dc:title></dc:title>
        <dc:creator>
          <cc:Agent>
            <dc:title />
          </cc:Agent>
        </dc:creator>
        <dc:contributor>
          <cc:Agent>
            <dc:title>Andy Fitzsimon</dc:title>
          </cc:Agent>
        </dc:contributor>
      </cc:Work>
    </rdf:RDF>
  </metadata>
  <g
     inkscape:label="Layer 1"
     inkscape:groupmode="layer"
     id="layer1"
     transform="translate(0,-292.4)">
    <g
       id="g9781-9-6"
       transform="translate(-42.544173,-476.50692)">
      <g
         id="g9787-52-7"
         transform="translate(-75.046691,-5.9947582)">
        <use
           id="use14724-8-4"
           xlink:href="#icon-Icon_RH_Hardware_Server-A-Single_RGB_Flat"
           transform="matrix(0.10357958,0,0,0.10091199,319.09233,868.05511)"
           x="0"
           y="0"
           width="100%"
           height="100%"
           style="fill:#7f7f7f;fill-opacity:1" />
        <g
           id="g16031-0-45"
           transform="translate(269.87086,191.95452)">
          <text
             id="text16033-8-3"
             style="line-height:0%;fill:#595959;fill-opacity:1"
             x="88.720001"
             y="745.79999">
            <tspan
               sodipodi:role="line"
               id="tspan24182-8-8"
               style="font-style:normal;font-variant:normal;font-weight:normal;font-stretch:normal;font-size:12px;line-height:100%;font-family:Overpass;-inkscape-font-specification:'Overpass, Normal';font-variant-ligatures:none;font-variant-caps:normal;font-variant-numeric:normal;text-align:center;writing-mode:lr-tb;text-anchor:middle;fill:#595959;fill-opacity:1"
               x="88.720001"
               y="745.79999">Router A</tspan>
          </text>
        </g>
      </g>
    </g>
    <g
       id="g9775-4-8"
       transform="translate(-327.02071,-466.15063)">
      <use
         style="fill:#7f7f7f;fill-opacity:1"
         height="100%"
         width="100%"
         y="0"
         x="0"
         transform="matrix(0.12765432,0,0,0.12765432,404.54302,829.71902)"
         xlink:href="#icon-Icon_RH_People_Adult-Plain_RGB_Flat"
         id="use14751-8-0" />
      <g
         transform="translate(363.86652,191.95452)"
         id="g16031-4-95-6">
        <text
           style="line-height:0%;fill:#595959;fill-opacity:1"
           id="text16033-1-0-8"
           transform="translate(88.72,745.8)">
          <tspan
             y="0"
             x="0"
             style="font-style:normal;font-variant:normal;font-weight:normal;font-stretch:normal;font-size:12px;line-height:100%;font-family:Overpass;-inkscape-font-specification:'Overpass, Normal';font-variant-ligatures:none;font-variant-caps:normal;font-variant-numeric:normal;text-align:center;writing-mode:lr-tb;text-anchor:middle;fill:#595959;fill-opacity:1"
             id="tspan24182-9-8-9"
             sodipodi:role="line">Sender</tspan>
        </text>
      </g>
    </g>
    <g
       id="g9775-4-8-0"
       transform="translate(-222.33982,-314.15062)">
      <use
         style="fill:#7f7f7f;fill-opacity:1"
         height="100%"
         width="100%"
         y="0"
         x="0"
         transform="matrix(0.12765432,0,0,0.12765432,404.54302,829.71902)"
         xlink:href="#icon-Icon_RH_People_Adult-Plain_RGB_Flat"
         id="use14751-8-0-7" />
      <g
         transform="translate(363.86652,191.95452)"
         id="g16031-4-95-6-8">
        <text
           style="line-height:0%;fill:#595959;fill-opacity:1"
           id="text16033-1-0-8-6"
           transform="translate(88.72,745.8)">
          <tspan
             y="0"
             x="0"
             style="font-style:normal;font-variant:normal;font-weight:normal;font-stretch:normal;font-size:12px;line-height:100%;font-family:Overpass;-inkscape-font-specification:'Overpass, Normal';font-variant-ligatures:none;font-variant-caps:normal;font-variant-numeric:normal;text-align:center;writing-mode:lr-tb;text-anchor:middle;fill:#595959;fill-opacity:1"
             id="tspan24182-9-8-9-7"
             sodipodi:role="line">Receiver</tspan>
        </text>
      </g>
    </g>
    <g
       id="g9781-9-6-4"
       transform="translate(62.04372,-483.50757)">
      <g
         id="g9787-52-7-3"
         transform="translate(3.95331,1.005904)">
        <use
           id="use14724-8-4-6"
           xlink:href="#icon-Icon_RH_Hardware_Server-A-Single_RGB_Flat"
           transform="matrix(0.10357958,0,0,0.10091199,319.09233,868.05511)"
           x="0"
           y="0"
           width="100%"
           height="100%"
           style="fill:#7f7f7f;fill-opacity:1" />
        <g
           id="g16031-0-45-2"
           transform="translate(269.87086,191.95452)">
          <text
             transform="translate(88.72,745.8)"
             id="text16033-8-3-5"
             style="line-height:0%;fill:#595959;fill-opacity:1">
            <tspan
               sodipodi:role="line"
               id="tspan24182-8-8-6"
               style="font-style:normal;font-variant:normal;font-weight:normal;font-stretch:normal;font-size:12px;line-height:100%;font-family:Overpass;-inkscape-font-specification:'Overpass, Normal';font-variant-ligatures:none;font-variant-caps:normal;font-variant-numeric:normal;text-align:center;writing-mode:lr-tb;text-anchor:middle;fill:#595959;fill-opacity:1"
               x="0"
               y="0">Router C</tspan>
          </text>
        </g>
      </g>
    </g>
    <g
       id="g9781-9-6-6"
       transform="translate(-31.95628,-563.50757)">
      <g
         id="g9787-52-7-0"
         transform="translate(3.95331,1.005904)">
        <use
           id="use14724-8-4-3"
           xlink:href="#icon-Icon_RH_Hardware_Server-A-Single_RGB_Flat"
           transform="matrix(0.10357958,0,0,0.10091199,319.09233,868.05511)"
           x="0"
           y="0"
           width="100%"
           height="100%"
           style="fill:#7f7f7f;fill-opacity:1" />
        <g
           id="g16031-0-45-28"
           transform="translate(269.87086,191.95452)">
          <text
             transform="translate(88.72,745.8)"
             id="text16033-8-3-3"
             style="line-height:0%;fill:#595959;fill-opacity:1">
            <tspan
               sodipodi:role="line"
               id="tspan24182-8-8-67"
               style="font-style:normal;font-variant:normal;font-weight:normal;font-stretch:normal;font-size:12px;line-height:100%;font-family:Overpass;-inkscape-font-specification:'Overpass, Normal';font-variant-ligatures:none;font-variant-caps:normal;font-variant-numeric:normal;text-align:center;writing-mode:lr-tb;text-anchor:middle;fill:#595959;fill-opacity:1"
               x="0"
               y="0">Router B</tspan>
          </text>
        </g>
      </g>
    </g>
    <g
       id="g9781-9-6-9-5"
       transform="translate(-108.22897,-541.15324)">
      <g
         id="g9787-52-7-5-2"
         transform="translate(3.95331,1.005904)">
        <g
           id="g4734">
          <g
             id="g4741"
             transform="translate(188.0637,-24.35433)">
            <use
               id="use14724-8-4-0-0"
               xlink:href="#icon-Icon_RH_Hardware_Server-A-Single_RGB_Flat"
               transform="matrix(0.10357958,0,0,0.10091199,418.30132,950.05511)"
               x="0"
               y="0"
               width="100%"
               height="100%"
               style="fill:#7f7f7f;fill-opacity:1" />
            <g
               id="g16031-0-45-3-4"
               transform="translate(269.87086,191.95452)">
              <text
                 id="text16033-8-3-0-9"
                 style="line-height:0%;fill:#595959;fill-opacity:1"
                 x="187.929"
                 y="825.79999">
                <tspan
                   sodipodi:role="line"
                   style="font-style:normal;font-variant:normal;font-weight:normal;font-stretch:normal;font-size:12px;line-height:100%;font-family:Overpass;-inkscape-font-specification:'Overpass, Normal';font-variant-ligatures:none;font-variant-caps:normal;font-variant-numeric:normal;text-align:center;writing-mode:lr-tb;text-anchor:middle;fill:#595959;fill-opacity:1"
                   x="187.929"
                   y="825.79999"
                   id="tspan5310">Broker</tspan>
              </text>
            </g>
          </g>
        </g>
      </g>
    </g>
    <path
       style="fill:none;fill-rule:evenodd;stroke:#595959;stroke-width:1.74204779;stroke-linecap:round;stroke-linejoin:miter;stroke-miterlimit:4;stroke-dasharray:none;stroke-opacity:1;marker-end:url(#TriangleOutM-2-9)"
       d="m 159.75525,426.4 h 41.93413"
       id="path12454-2-0-3-5"
       inkscape:connector-curvature="0"
       sodipodi:nodetypes="cc" />
    <path
       style="fill:none;fill-rule:evenodd;stroke:#595959;stroke-width:1.74204779;stroke-linecap:round;stroke-linejoin:miter;stroke-miterlimit:4;stroke-dasharray:none;stroke-opacity:1;marker-end:url(#TriangleOutM-2-9-9)"
       d="M 263.11696,404.68919 292,366.4"
       id="path12454-2-0-3-5-9"
       inkscape:connector-curvature="0"
       sodipodi:nodetypes="cc" />
    <path
       style="fill:none;fill-rule:evenodd;stroke:#595959;stroke-width:1.74204779;stroke-linecap:round;stroke-linejoin:miter;stroke-miterlimit:4;stroke-dasharray:none;stroke-opacity:1;marker-end:url(#TriangleOutM-2-9-9-9)"
       d="M 363.11696,361.33006 392,399.61925"
       id="path12454-2-0-3-5-9-7"
       inkscape:connector-curvature="0"
       sodipodi:nodetypes="cc" />
    <path
       sodipodi:nodetypes="cc"
       inkscape:connector-curvature="0"
       id="path14534"
       d="M 262.06587,554.4 292,524.4"
       style="fill:none;fill-rule:evenodd;stroke:#595959;stroke-width:1.74204779;stroke-linecap:round;stroke-linejoin:miter;stroke-miterlimit:4;stroke-dasharray:none;stroke-opacity:1;marker-end:url(#marker14538)" />
    <path
       style="fill:none;fill-rule:evenodd;stroke:#595959;stroke-width:2;stroke-linecap:round;stroke-linejoin:round;stroke-miterlimit:4;stroke-dasharray:4, 4;stroke-dashoffset:5.5999999;stroke-opacity:1;marker-start:url(#marker15435-71-7)"
       d="M 360.34796,484.4 392,444.4"
       id="path12454-2-0-6-9-1"
       inkscape:connector-curvature="0"
       sodipodi:nodetypes="cc" />
    <path
       sodipodi:nodetypes="cc"
       inkscape:connector-curvature="0"
       id="path5168"
       d="m 459.27486,428.4 h 41.93413"
       style="fill:none;fill-rule:evenodd;stroke:#595959;stroke-width:1.74204779;stroke-linecap:round;stroke-linejoin:miter;stroke-miterlimit:4;stroke-dasharray:none;stroke-opacity:1;marker-end:url(#marker5172)" />
  </g>
</svg>
